<?xml version="1.0" encoding="UTF-8"?>
<!DOCTYPE svg PUBLIC "-//W3C//DTD SVG 1.1//EN" "http://www.w3.org/Graphics/SVG/1.1/DTD/svg11.dtd">
<svg version="1.2" width="722.75mm" height="722.75mm" viewBox="0 0 72275 72275" preserveAspectRatio="xMidYMid" fill-rule="evenodd" stroke-width="28.222" stroke-linejoin="round" xmlns="http://www.w3.org/2000/svg" xmlns:ooo="http://xml.openoffice.org/svg/export" xmlns:xlink="http://www.w3.org/1999/xlink" xmlns:presentation="http://sun.com/xmlns/staroffice/presentation" xmlns:smil="http://www.w3.org/2001/SMIL20/" xmlns:anim="urn:oasis:names:tc:opendocument:xmlns:animation:1.0" xmlns:svg="urn:oasis:names:tc:opendocument:xmlns:svg-compatible:1.0" xml:space="preserve">
 <defs class="ClipPathGroup">
  <clipPath id="presentation_clip_path" clipPathUnits="userSpaceOnUse">
   <rect x="0" y="0" width="72275" height="72275"/>
  </clipPath>
  <clipPath id="presentation_clip_path_shrink" clipPathUnits="userSpaceOnUse">
   <rect x="72" y="72" width="72131" height="72131"/>
  </clipPath>
 </defs>
 <defs class="TextShapeIndex">
  <g ooo:slide="id1" ooo:id-list="id3"/>
 </defs>
 <defs class="EmbeddedBulletChars">
  <g id="bullet-char-template-57356" transform="scale(0.00048828125,-0.00048828125)">
   <path d="M 580,1141 L 1163,571 580,0 -4,571 580,1141 Z"/>
  </g>
  <g id="bullet-char-template-57354" transform="scale(0.00048828125,-0.00048828125)">
   <path d="M 8,1128 L 1137,1128 1137,0 8,0 8,1128 Z"/>
  </g>
  <g id="bullet-char-template-10146" transform="scale(0.00048828125,-0.00048828125)">
   <path d="M 174,0 L 602,739 174,1481 1456,739 174,0 Z M 1358,739 L 309,1346 659,739 1358,739 Z"/>
  </g>
  <g id="bullet-char-template-10132" transform="scale(0.00048828125,-0.00048828125)">
   <path d="M 2015,739 L 1276,0 717,0 1260,543 174,543 174,936 1260,936 717,1481 1274,1481 2015,739 Z"/>
  </g>
  <g id="bullet-char-template-10007" transform="scale(0.00048828125,-0.00048828125)">
   <path d="M 0,-2 C -7,14 -16,27 -25,37 L 356,567 C 262,823 215,952 215,954 215,979 228,992 255,992 264,992 276,990 289,987 310,991 331,999 354,1012 L 381,999 492,748 772,1049 836,1024 860,1049 C 881,1039 901,1025 922,1006 886,937 835,863 770,784 769,783 710,716 594,584 L 774,223 C 774,196 753,168 711,139 L 727,119 C 717,90 699,76 672,76 641,76 570,178 457,381 L 164,-76 C 142,-110 111,-127 72,-127 30,-127 9,-110 8,-76 1,-67 -2,-52 -2,-32 -2,-23 -1,-13 0,-2 Z"/>
  </g>
  <g id="bullet-char-template-10004" transform="scale(0.00048828125,-0.00048828125)">
   <path d="M 285,-33 C 182,-33 111,30 74,156 52,228 41,333 41,471 41,549 55,616 82,672 116,743 169,778 240,778 293,778 328,747 346,684 L 369,508 C 377,444 397,411 428,410 L 1163,1116 C 1174,1127 1196,1133 1229,1133 1271,1133 1292,1118 1292,1087 L 1292,965 C 1292,929 1282,901 1262,881 L 442,47 C 390,-6 338,-33 285,-33 Z"/>
  </g>
  <g id="bullet-char-template-9679" transform="scale(0.00048828125,-0.00048828125)">
   <path d="M 813,0 C 632,0 489,54 383,161 276,268 223,411 223,592 223,773 276,916 383,1023 489,1130 632,1184 813,1184 992,1184 1136,1130 1245,1023 1353,916 1407,772 1407,592 1407,412 1353,268 1245,161 1136,54 992,0 813,0 Z"/>
  </g>
  <g id="bullet-char-template-8226" transform="scale(0.00048828125,-0.00048828125)">
   <path d="M 346,457 C 273,457 209,483 155,535 101,586 74,649 74,723 74,796 101,859 155,911 209,963 273,989 346,989 419,989 480,963 531,910 582,859 608,796 608,723 608,648 583,586 532,535 482,483 420,457 346,457 Z"/>
  </g>
  <g id="bullet-char-template-8211" transform="scale(0.00048828125,-0.00048828125)">
   <path d="M -4,459 L 1135,459 1135,606 -4,606 -4,459 Z"/>
  </g>
  <g id="bullet-char-template-61548" transform="scale(0.00048828125,-0.00048828125)">
   <path d="M 173,740 C 173,903 231,1043 346,1159 462,1274 601,1332 765,1332 928,1332 1067,1274 1183,1159 1299,1043 1357,903 1357,740 1357,577 1299,437 1183,322 1067,206 928,148 765,148 601,148 462,206 346,322 231,437 173,577 173,740 Z"/>
  </g>
 </defs>
 <g>
  <g id="id2" class="Master_Slide">
   <g id="bg-id2" class="Background"/>
   <g id="bo-id2" class="BackgroundObjects"/>
  </g>
 </g>
 <g class="SlideGroup">
  <g>
   <g id="container-id1">
    <g id="id1" class="Slide" clip-path="url(#presentation_clip_path)">
     <g class="Page">
      <g class="Graphic">
       <g id="id3">
        <rect class="BoundingBox" stroke="none" fill="none" x="-33123" y="-33784" width="138264" height="138264"/>
        <path fill="rgb(0,0,0)" stroke="none" d="M 24914,3838 C 24300,4567 23011,6693 22241,8252 20804,11147 19825,14231 18968,18510 L 18617,20264 18354,20446 C 17976,20703 14615,22876 11376,24955 9837,25947 7813,27242 6875,27850 L 5181,28943 5349,29496 C 5579,30259 7394,35692 7455,35800 7509,35901 9736,33593 15189,27789 L 16741,26136 17133,25157 C 17632,23909 18206,22734 18158,23065 17855,25015 17821,25481 17821,27519 17828,29065 17855,29820 17942,30542 L 18064,31514 17605,32027 C 16674,33066 14845,35051 12193,37878 10694,39471 9399,40854 9311,40949 L 9156,41118 10067,43918 C 10566,45457 11086,47029 11221,47414 11457,48082 11470,48109 11585,47988 11943,47623 19501,37838 20703,36191 21053,35705 21188,35449 21364,34909 21951,33107 23193,29922 23699,28923 L 23895,28538 23267,27256 C 22073,24813 21546,23126 21114,20365 20939,19245 20939,15810 21114,14697 21560,11882 22127,9898 23152,7577 23604,6551 24320,5127 24806,4277 25170,3649 25211,3480 24914,3838 L 24914,3838 Z"/>
        <path fill="rgb(0,0,0)" stroke="none" d="M 25811,5606 C 25440,6187 24475,8157 24104,9095 23443,10782 22842,13023 22612,14683 22369,16458 22356,18462 22579,20042 22822,21762 23456,23996 24198,25744 L 24549,26574 24826,26412 C 25244,26176 28470,24469 29564,23909 30535,23409 30880,23227 34220,21412 35847,20527 37048,19859 37142,19792 37149,19785 36974,19205 36744,18503 35907,15938 34800,13664 33302,11457 31095,8204 28909,6247 26439,5323 L 26081,5188 25811,5606 25811,5606 Z"/>
        <path fill="rgb(0,0,0)" stroke="none" d="M 55208,9088 C 54392,9628 52543,10782 51092,11653 48993,12915 46422,14494 45065,15351 44917,15446 45011,15500 47259,16620 48547,17261 50140,18084 50788,18435 51436,18793 51969,19083 51976,19083 51989,19083 53312,16100 54095,14292 54473,13421 55033,12125 55343,11424 56254,9325 56747,8144 56720,8123 56707,8110 56025,8542 55208,9088 L 55208,9088 Z"/>
        <path fill="rgb(0,0,0)" stroke="none" d="M 36947,14913 C 37088,15223 37338,15810 37493,16229 L 37790,16984 38600,17389 C 40125,18138 41374,19050 42690,20365 43365,21040 44566,22431 44782,22782 44842,22883 44896,22849 45214,22512 L 45585,22120 45652,22478 C 45693,22667 45767,23207 45814,23672 L 45902,24516 46239,24961 C 46995,25947 47825,27546 48797,29881 49526,31636 49735,32000 50127,32196 50248,32257 50869,32506 51497,32756 53791,33647 54135,33964 55323,36238 55694,36954 56160,37791 56362,38094 56734,38648 56936,38870 56835,38614 56693,38249 56106,35725 56072,35348 56052,35078 56092,34511 56180,33856 56261,33276 56322,32743 56322,32675 56322,32574 56187,32500 55694,32331 55357,32216 54905,32041 54696,31946 L 54311,31777 54412,31352 C 54547,30779 54493,29787 54297,29220 54081,28599 53582,27890 52968,27317 52428,26824 51483,26176 51065,26021 50815,25920 50775,25960 49796,27060 49438,27465 49128,27789 49101,27789 49067,27789 49243,27188 49486,26460 49998,24907 50012,25103 49317,23841 48777,22862 48176,22147 46530,20534 43931,17997 41171,16141 38101,14865 37723,14710 36764,14359 36710,14359 36697,14359 36805,14609 36947,14913 L 36947,14913 Z M 51976,27762 C 53177,28666 53649,29658 53488,30954 53413,31548 53218,32446 53170,32446 53083,32446 52212,31825 51976,31595 51625,31258 51483,30900 51395,30178 51287,29193 51314,27384 51443,27384 51456,27384 51699,27553 51976,27762 L 51976,27762 Z"/>
        <path fill="rgb(0,0,0)" stroke="none" d="M 60007,28160 C 60506,29314 60931,30536 61073,31238 61127,31514 61208,32270 61248,32918 61316,33971 61552,36083 61707,37001 61782,37413 61815,37345 61984,36394 62200,35219 62220,34868 62106,34598 L 62004,34355 62355,34099 C 62672,33870 63037,33465 62976,33404 62963,33390 62699,33417 62396,33458 62092,33498 61829,33519 61809,33498 61788,33478 61802,33195 61849,32864 61991,31723 61910,31143 61458,30192 61174,29598 60391,28383 60040,27991 L 59831,27755 60007,28160 60007,28160 Z"/>
        <path fill="rgb(0,0,0)" stroke="none" d="M 44579,29031 C 43918,29206 43095,29760 43095,30023 43095,30279 44350,31278 44579,31204 44633,31184 44863,31103 45085,31028 45970,30704 47130,30779 48386,31238 48682,31346 48932,31420 48946,31413 48959,31400 48561,30995 48068,30509 46651,29125 45706,28720 44579,29031 L 44579,29031 Z"/>
        <path fill="rgb(0,0,0)" stroke="none" d="M 31291,30084 C 30029,30515 28720,31197 27809,31899 26344,33026 24225,35550 22396,38351 21884,39140 20966,40638 20986,40659 20993,40665 21526,40456 22174,40200 24482,39282 27289,38256 28686,37824 30164,37365 32040,36873 32580,36798 32965,36744 34024,36846 35367,37075 L 36386,37251 37750,36569 C 38499,36191 39140,35887 39174,35887 39207,35887 39396,36090 39592,36340 40557,37575 41650,38607 42757,39316 43722,39943 43668,39930 45220,39856 45963,39822 47097,39802 47738,39822 48676,39849 48885,39835 48784,39768 48716,39727 48068,39336 47339,38904 45814,38000 45004,37399 44100,36502 43749,36144 43236,35644 42973,35388 42703,35132 42494,34916 42501,34909 42602,34828 44620,34268 44815,34268 44836,34268 44991,34551 45160,34889 46179,36920 47029,37635 49499,38553 49958,38722 50397,38904 50471,38958 50667,39093 51503,40220 51706,40625 51814,40841 51861,41023 51841,41124 51821,41205 51233,41806 50532,42454 48122,44701 45511,47347 45058,48001 44579,48683 43904,49810 43904,49911 43904,49992 46712,55195 47151,55931 47292,56167 47400,56370 47387,56383 47380,56397 47083,56282 46732,56127 45652,55661 43317,54723 42184,54304 41590,54089 40982,53846 40834,53771 40685,53704 40267,53508 39896,53339 37777,52361 35705,50856 34645,49526 33910,48602 33599,47765 33532,46496 L 33491,45740 36197,45740 C 39423,45740 39741,45774 42170,46361 L 43304,46631 43688,46483 C 44269,46253 45673,45545 46435,45099 47873,44256 48898,43513 49776,42670 50019,42434 50309,42197 50417,42137 L 50619,42029 50417,42069 C 50106,42137 49432,42413 48359,42906 47171,43459 46408,43736 45639,43891 45133,43986 44971,43993 44431,43925 43162,43763 42042,43399 40571,42663 L 39572,42164 35664,42164 C 33518,42164 31757,42143 31757,42123 31757,41988 32479,41043 32918,40598 33208,40308 33410,40072 33377,40072 33161,40072 31797,40578 31527,40753 31352,40868 30961,41232 30657,41563 L 30103,42164 25541,42164 20973,42164 20628,43561 C 20271,45052 20075,46037 19913,47293 19771,48345 19609,50195 19609,50741 L 19609,51193 20757,52307 21904,53427 21249,53792 C 17227,56005 14487,57530 14426,57584 14399,57605 18091,68706 18212,68969 L 18293,69151 18874,68632 C 21296,66472 23321,64637 26763,61499 28187,60196 29732,58786 30205,58360 30670,57935 31885,56822 32897,55897 33910,54966 34800,54169 34875,54116 34983,54035 35145,54035 36029,54136 39349,54520 40800,54871 45227,56376 49573,57854 51584,58421 52846,58549 55067,58765 58718,57928 60412,56808 L 60628,56666 60877,57011 C 61012,57193 61147,57348 61174,57348 61208,57348 61350,57254 61491,57139 61640,57024 61809,56889 61869,56849 61977,56768 61984,56727 61890,56295 61741,55580 61755,55458 62153,54635 62348,54217 62551,53765 62591,53630 62659,53420 62767,53319 63266,53002 64670,52111 64879,51861 65804,49958 66904,47684 66938,47428 66263,46058 L 65851,45214 65433,45383 C 64724,45666 64049,45666 62375,45376 61599,45241 60796,45133 60594,45133 60250,45133 60175,45106 59851,44850 59156,44316 58299,43338 58016,42758 L 57759,42231 57510,42427 C 57193,42677 56572,43378 56356,43723 56261,43864 56187,44067 56187,44168 56187,44377 56808,45538 57388,46415 57597,46726 58137,47455 58583,48035 59487,49196 60182,50114 60270,50255 60297,50309 60405,50633 60506,50971 60655,51490 60749,51672 61059,52057 61262,52314 61532,52671 61653,52854 L 61876,53191 61593,53751 C 60823,55249 58981,56424 56659,56903 55991,57038 54662,57200 53656,57267 52921,57321 52819,57314 52576,57193 52043,56936 51159,56316 50734,55904 50194,55391 49614,54723 49661,54676 49675,54655 50127,54703 50660,54777 51193,54851 52374,54973 53285,55060 L 54945,55209 55546,54966 C 55883,54838 56315,54676 56511,54615 56700,54547 56862,54493 56862,54480 56862,54473 56477,54426 56005,54379 53744,54163 50228,53663 49391,53441 49148,53373 49101,53326 48817,52779 48467,52111 48136,51342 48176,51301 48190,51281 48777,51376 49479,51504 50856,51753 52037,51929 53899,52152 L 55087,52300 55856,51983 C 56281,51807 56653,51645 56680,51612 56713,51585 56558,51538 56342,51511 55404,51396 50842,50653 49897,50464 49330,50350 48797,50208 48716,50154 48392,49945 48453,49533 48925,48764 49074,48514 49236,48305 49276,48305 49317,48305 49924,48393 50626,48507 52064,48730 55877,49250 56086,49250 56194,49243 56167,49202 55951,49027 55802,48912 55532,48669 55343,48501 55006,48190 54999,48190 54230,48075 53204,47920 50437,47428 50376,47387 50295,47340 50586,46415 50829,45936 50957,45693 51159,45403 51281,45288 51402,45174 51935,44836 52475,44526 54446,43405 55512,42515 55998,41590 56207,41185 56659,40126 56659,40038 56659,40018 56531,39943 56376,39862 55829,39586 55168,39100 54824,38729 54635,38519 54108,37791 53649,37102 53197,36414 52644,35638 52428,35374 52212,35111 51868,34686 51659,34430 51112,33755 50451,33161 49998,32945 49621,32756 49580,32749 48595,32756 47974,32756 47117,32817 46368,32911 45004,33087 44586,33073 43864,32824 43216,32608 42291,32128 41556,31636 L 40935,31224 40584,31494 C 40388,31636 39956,31919 39619,32122 L 39012,32486 37966,32452 C 35982,32378 34132,32540 32135,32958 31696,33053 31325,33120 31311,33100 31271,33060 31602,31892 31953,30812 32229,29976 32263,29814 32169,29814 32108,29820 31716,29935 31291,30084 L 31291,30084 Z M 49249,34268 C 49533,34349 49843,34679 49843,34909 49843,35017 49776,35091 49614,35172 49243,35348 49101,35321 49101,35071 49101,34916 49040,34794 48865,34632 48588,34369 48581,34349 48784,34268 48979,34193 48959,34193 49249,34268 L 49249,34268 Z M 28733,45943 C 28868,46348 29348,47272 29732,47900 30826,49675 32438,51247 34274,52347 34902,52725 36069,53292 36501,53434 36643,53474 36751,53528 36731,53542 36683,53589 35347,53441 34220,53258 30299,52631 27600,51328 25312,48973 24934,48588 24441,48021 24212,47725 23834,47218 22984,45882 22984,45781 22984,45761 24259,45740 25825,45740 L 28659,45740 28733,45943 28733,45943 Z"/>
       </g>
      </g>
     </g>
    </g>
   </g>
  </g>
 </g>
</svg>